<svg version="1.1" xmlns="http://www.w3.org/2000/svg" xmlns:xlink="http://www.w3.org/1999/xlink" width="577.51829" height="178.29769" viewBox="0,0,577.51829,178.29769"><g transform="translate(48.75915,-90.85115)"><g fill="#21409a" fill-rule="nonzero" stroke="none" stroke-width="1" stroke-linecap="butt" stroke-linejoin="miter" stroke-miterlimit="10" stroke-dasharray="" stroke-dashoffset="0" style="mix-blend-mode: normal"><path d="M-6.99064,264.73192h-41.76851c0,0 9.50957,-80.27374 48.61363,-155.63065c6.08151,-12.31685 15.95917,-18.22257 28.69903,-18.25003c12.73986,-0.02746 21.94727,6.22984 27.88045,18.25003c39.09857,75.35691 48.61365,155.63065 48.61365,155.63065h-41.75753c-10.36109,-13.64082 -25.16658,-30.50646 -35.1486,-30.5504c-10.02048,0.14833 -24.79299,16.94803 -35.13212,30.5504M23.14772,145.78812c-1.4888,4.28508 -3.36214,10.55336 -4.26309,13.62434c-1.28002,4.37846 -2.73586,6.38367 -8.4438,5.664c-7.02093,-0.88998 -17.16228,-4.84543 -19.65092,-0.08791c-2.48864,4.75205 1.65361,7.37251 13.65182,20.08491c0,0 6.08701,4.53229 1.68657,11.81692c-4.40044,7.29013 -5.56512,14.76153 -2.5271,17.77756c5.8398,5.80133 14.38246,-8.7075 24.52382,-8.80089c10.14683,-0.09339 18.6236,14.70111 24.56228,8.80089c3.03251,-3.01603 1.86784,-10.48743 -2.5326,-17.77756c-4.40044,-7.28463 1.69207,-11.81692 1.69207,-11.81692c11.99821,-12.7124 16.13496,-15.33287 13.64632,-20.08491c-2.48864,-4.75753 -12.62999,-0.80207 -19.65092,0.08791c-5.70795,0.71967 -7.15828,-1.28554 -8.4438,-5.664c-0.90096,-3.07098 -2.76882,-9.33926 -4.26309,-13.62434c-0.56036,-1.61514 -2.83474,-6.10347 -5.00474,-6.05953c-2.1755,0.04394 -4.40044,4.39494 -4.98278,6.05953M236.35219,264.73192v-68.62713c0,-72.04421 -118.5867,-72.04421 -118.5867,0v68.62713h22.55159c5.54314,0 10.08091,-4.53779 10.08091,-10.08093v-55.77191c0,-35.26947 53.32171,-35.26947 53.32171,0v55.77191c0,5.54314 4.53779,10.08093 10.08093,10.08093zM528.75915,194.92913v-33.64332v-67.12188c-8.47677,-3.14238 -32.73689,-6.6089 -32.6325,9.15249v57.96939v33.64332v57.96939c-0.05494,8.81737 7.51536,11.61913 15.67899,11.8224h0.02196c0.64276,0.01648 1.29102,0.01098 1.94477,0h14.98678v-2.66993v-6.33971zM418.49538,142.88745c36.28031,0 65.688,28.265 65.688,63.12794c0,34.86842 -29.40769,63.13346 -65.688,63.13346c-36.28031,0 -65.6935,-28.26504 -65.6935,-63.13346c0,-34.86294 29.41319,-63.12794 65.6935,-63.12794M418.49538,172.31712c-17.59079,0 -31.84691,15.27794 -31.84691,34.12677c0,18.84883 14.25612,34.12679 31.84691,34.12679c17.58529,0 31.84689,-15.27796 31.84689,-34.12679c0,-18.84883 -14.2616,-34.12677 -31.84689,-34.12677M311.71459,142.88745c-37.61528,0 -68.11622,28.265 -68.11622,63.12794c0,34.86842 30.50094,63.13346 68.11622,63.13346c16.14594,0 30.96789,-5.20801 42.64198,-13.89903c-5.84528,-7.11432 -10.46547,-15.24498 -13.51447,-24.12827c-6.59792,5.59806 -15.40979,9.02064 -25.09515,9.02064c-20.46398,0 -36.62642,-13.14641 -37.05492,-34.12679c-0.42301,-20.98039 16.59095,-34.12127 37.05492,-34.12127c9.68536,0 18.49723,3.42256 25.09515,9.02062c3.049,-8.88329 7.66919,-17.01393 13.51447,-24.12825c-11.67409,-8.6965 -26.49604,-13.89903 -42.64198,-13.89903"/></g></g></svg>